<?xml version="1.0" encoding="utf-8"?>
<!-- Generator: Adobe Illustrator 16.0.3, SVG Export Plug-In . SVG Version: 6.00 Build 0)  -->
<!DOCTYPE svg PUBLIC "-//W3C//DTD SVG 1.1//EN" "http://www.w3.org/Graphics/SVG/1.1/DTD/svg11.dtd">
<svg version="1.1" id="圖層_1" xmlns="http://www.w3.org/2000/svg" xmlns:xlink="http://www.w3.org/1999/xlink" x="0px" y="0px"
	 width="192px" height="192px" viewBox="0 0 192 192" enable-background="new 0 0 192 192" xml:space="preserve">
<g>
	<defs>
		<rect id="SVGID_9_" y="0.494" width="192" height="192"/>
	</defs>
	<clipPath id="SVGID_2_">
		<use xlink:href="#SVGID_9_"  overflow="visible"/>
	</clipPath>
	<g clip-path="url(#SVGID_2_)">
		<g>
			<path fill="#040000" d="M124.936,53.48c0,1.828-1.482,3.314-3.313,3.314H42.68c-1.83,0-3.316-1.486-3.316-3.314l0,0
				c0-1.831,1.486-3.316,3.316-3.316h78.943C123.453,50.164,124.936,51.649,124.936,53.48L124.936,53.48z"/>
			<path fill="#040000" d="M124.936,67.289c0,1.83-1.482,3.313-3.313,3.313H42.68c-1.83,0-3.316-1.483-3.316-3.313l0,0
				c0-1.831,1.486-3.314,3.316-3.314h78.943C123.453,63.975,124.936,65.458,124.936,67.289L124.936,67.289z"/>
			<path fill="#040000" d="M124.936,39.669c0,1.83-1.482,3.313-3.313,3.313H42.68c-1.83,0-3.316-1.483-3.316-3.313l0,0
				c0-1.831,1.486-3.314,3.316-3.314h78.943C123.453,36.355,124.936,37.839,124.936,39.669L124.936,39.669z"/>
			<path fill="#040000" d="M42.68,84.414h78.943c1.83,0,3.313-1.485,3.313-3.314c0-1.831-1.482-3.316-3.313-3.316H42.68
				c-1.83,0-3.316,1.485-3.316,3.316C39.363,82.928,40.85,84.414,42.68,84.414z"/>
			<path fill="#040000" d="M39.363,94.908c0,1.833,1.486,3.316,3.316,3.316h49.34c2.502-2.515,5.297-4.738,8.318-6.629H42.68
				C40.85,91.595,39.363,93.078,39.363,94.908z"/>
			<path fill="#040000" d="M39.363,108.719c0,1.831,1.486,3.314,3.316,3.314h39.859c1.037-2.315,2.252-4.532,3.639-6.627H42.68
				C40.85,105.405,39.363,106.889,39.363,108.719z"/>
			<path fill="#040000" d="M37.064,165.487c-3.564,0-6.453-2.889-6.453-6.451V32.4c0-3.565,2.889-6.454,6.453-6.454h90.34
				c3.563,0,6.451,2.889,6.451,6.454v53.004c2.213,0.43,4.365,1.02,6.453,1.751V29.172c0-5.344-4.336-9.679-9.68-9.679H33.838
				c-5.346,0-9.68,4.334-9.68,9.679v133.09c0,5.345,4.334,9.679,9.68,9.679h69.207c-3.324-1.78-6.404-3.95-9.184-6.454H37.064z"/>
		</g>
		<path d="M126.199,90.211c-22.998,0-41.643,18.644-41.643,41.641c0,22.998,18.645,41.642,41.643,41.642
			s41.641-18.644,41.641-41.642C167.84,108.854,149.197,90.211,126.199,90.211z M152.889,152.08l-6.463,6.463l-20.227-20.227
			l-20.229,20.227l-6.461-6.463l20.225-20.227L99.51,111.625l6.461-6.463l20.229,20.228l20.227-20.228l6.463,6.463l-20.227,20.227
			L152.889,152.08z"/>
	</g>
</g>
</svg>
