<?xml version="1.0" encoding="utf-8"?>
<!-- Generator: Adobe Illustrator 16.0.3, SVG Export Plug-In . SVG Version: 6.00 Build 0)  -->
<!DOCTYPE svg PUBLIC "-//W3C//DTD SVG 1.1//EN" "http://www.w3.org/Graphics/SVG/1.1/DTD/svg11.dtd">
<svg version="1.1" id="圖層_1" xmlns="http://www.w3.org/2000/svg" xmlns:xlink="http://www.w3.org/1999/xlink" x="0px" y="0px"
	 width="192px" height="192px" viewBox="0 0 192 192" enable-background="new 0 0 192 192" xml:space="preserve">
<g>
	<defs>
		<rect id="SVGID_11_" y="-1.18" width="192" height="192"/>
	</defs>
	<clipPath id="SVGID_2_">
		<use xlink:href="#SVGID_11_"  overflow="visible"/>
	</clipPath>
	<g clip-path="url(#SVGID_2_)">
		<path d="M160.09,58.021h-17.712V17.82H49.621v40.201H31.909c-3.616,0-6.548,2.931-6.548,6.546v66.146
			c0,3.616,2.932,6.547,6.548,6.547h17.858v-19.864c0-2.169,1.76-3.929,3.928-3.929h83.626c2.17,0,3.929,1.76,3.929,3.929v19.864
			h18.84c3.616,0,6.548-2.931,6.548-6.547V64.567C166.638,60.951,163.706,58.021,160.09,58.021z M36.219,78.399
			c-1.598,0-2.894-1.295-2.894-2.893c0-1.599,1.296-2.894,2.894-2.894c1.599,0,2.896,1.295,2.896,2.894
			C39.114,77.104,37.817,78.399,36.219,78.399z M45.465,78.399c-1.6,0-2.896-1.295-2.896-2.893c0-1.599,1.297-2.894,2.896-2.894
			c1.598,0,2.893,1.295,2.893,2.894C48.357,77.104,47.063,78.399,45.465,78.399z M54.705,78.399c-1.598,0-2.894-1.295-2.894-2.893
			c0-1.599,1.296-2.894,2.894-2.894c1.6,0,2.896,1.295,2.896,2.894C57.601,77.104,56.305,78.399,54.705,78.399z M63.947,78.399
			c-1.598,0-2.893-1.295-2.893-2.893c0-1.599,1.295-2.894,2.893-2.894c1.6,0,2.894,1.295,2.894,2.894
			C66.841,77.104,65.547,78.399,63.947,78.399z M73.191,78.399c-1.599,0-2.894-1.295-2.894-2.893c0-1.599,1.295-2.894,2.894-2.894
			c1.598,0,2.893,1.295,2.893,2.894C76.084,77.104,74.789,78.399,73.191,78.399z M139.402,58.021H52.595V21.525h86.808V58.021z"/>
		<g>
			
				<rect x="55.191" y="106.136" fill="none" stroke="#000000" stroke-width="2" stroke-miterlimit="10" width="81.616" height="65.684"/>
			<path d="M129.056,164.837H62.943c-0.786,0-1.421-0.636-1.421-1.421s0.635-1.422,1.421-1.422h66.112
				c0.786,0,1.421,0.637,1.421,1.422S129.842,164.837,129.056,164.837z"/>
			<path d="M129.056,155.586H62.943c-0.786,0-1.421-0.636-1.421-1.422c0-0.785,0.635-1.422,1.421-1.422h66.112
				c0.786,0,1.421,0.637,1.421,1.422C130.477,154.951,129.842,155.586,129.056,155.586z"/>
			<path d="M129.056,146.335H62.943c-0.786,0-1.421-0.638-1.421-1.422c0-0.785,0.635-1.421,1.421-1.421h66.112
				c0.786,0,1.421,0.636,1.421,1.421C130.477,145.698,129.842,146.335,129.056,146.335z"/>
			<path d="M129.056,137.083H62.943c-0.786,0-1.421-0.636-1.421-1.421c0-0.784,0.635-1.422,1.421-1.422h66.112
				c0.786,0,1.421,0.638,1.421,1.422C130.477,136.448,129.842,137.083,129.056,137.083z"/>
			<path d="M129.056,127.833H62.943c-0.786,0-1.421-0.637-1.421-1.423c0-0.784,0.635-1.422,1.421-1.422h66.112
				c0.786,0,1.421,0.638,1.421,1.422C130.477,127.197,129.842,127.833,129.056,127.833z"/>
			<path d="M129.056,118.582H62.943c-0.786,0-1.421-0.638-1.421-1.422c0-0.785,0.635-1.421,1.421-1.421h66.112
				c0.786,0,1.421,0.636,1.421,1.421C130.477,117.944,129.842,118.582,129.056,118.582z"/>
		</g>
	</g>
</g>
</svg>
