<?xml version="1.0" encoding="utf-8"?>
<!-- Generator: Adobe Illustrator 16.0.3, SVG Export Plug-In . SVG Version: 6.00 Build 0)  -->
<!DOCTYPE svg PUBLIC "-//W3C//DTD SVG 1.1//EN" "http://www.w3.org/Graphics/SVG/1.1/DTD/svg11.dtd">
<svg version="1.1" id="圖層_1" xmlns="http://www.w3.org/2000/svg" xmlns:xlink="http://www.w3.org/1999/xlink" x="0px" y="0px"
	 width="192px" height="192px" viewBox="0 0 192 192" enable-background="new 0 0 192 192" xml:space="preserve">
<g>
	<defs>
		<rect id="SVGID_109_" width="192" height="192"/>
	</defs>
	<clipPath id="SVGID_2_">
		<use xlink:href="#SVGID_109_"  overflow="visible"/>
	</clipPath>
	<path clip-path="url(#SVGID_2_)" fill="#040000" d="M128.328,115.415h-6.803l-2.407-2.324
		c8.729-10.125,13.524-23.047,13.516-36.419c0-30.907-25.055-55.962-55.963-55.962c-30.907,0-55.962,25.055-55.962,55.962
		c0,30.908,25.055,55.963,55.962,55.963c13.861,0,26.602-5.079,36.418-13.515l2.325,2.406v6.803l43.048,42.962l12.828-12.828
		L128.328,115.415z M76.671,115.415c-21.438,0-38.742-17.305-38.742-38.743c0-21.438,17.305-38.742,38.742-38.742
		c21.438,0,38.743,17.305,38.743,38.742C115.414,98.11,98.109,115.415,76.671,115.415z"/>
</g>
</svg>
