<?xml version="1.0" encoding="utf-8"?>
<!-- Generator: Adobe Illustrator 16.0.3, SVG Export Plug-In . SVG Version: 6.00 Build 0)  -->
<!DOCTYPE svg PUBLIC "-//W3C//DTD SVG 1.1//EN" "http://www.w3.org/Graphics/SVG/1.1/DTD/svg11.dtd">
<svg version="1.1" id="圖層_1" xmlns="http://www.w3.org/2000/svg" xmlns:xlink="http://www.w3.org/1999/xlink" x="0px" y="0px"
	 width="192px" height="192px" viewBox="0 0 192 192" enable-background="new 0 0 192 192" xml:space="preserve">
<g>
	<defs>
		<rect id="SVGID_1_" y="-0.322" width="192" height="192"/>
	</defs>
	<clipPath id="SVGID_2_">
		<use xlink:href="#SVGID_1_"  overflow="visible"/>
	</clipPath>
	<path clip-path="url(#SVGID_2_)" fill="#040000" d="M156.5,172.678H35.5c-9.109,0-16.5-7.392-16.5-16.501V35.178
		c0-9.109,7.391-16.5,16.5-16.5H156.5c9.109,0,16.5,7.391,16.5,16.5v120.999C173,165.286,165.609,172.678,156.5,172.678z
		 M100.848,68.83l-46.649,46.65l-2.163,19.629c-0.279,2.607,1.927,4.842,4.569,4.569l19.629-2.163l46.65-46.65
		c0.788-0.791,0.788-2.098,0-2.921l-19.078-19.078C102.946,68.042,101.636,68.042,100.848,68.83z M137.594,64.433l-10.349-10.349
		c-3.229-3.229-8.458-3.229-11.651,0l-7.942,7.943c-0.788,0.788-0.788,2.094,0,2.922l19.078,19.077c0.795,0.789,2.098,0.789,2.922,0
		l7.942-7.941C140.788,72.886,140.788,67.662,137.594,64.433z"/>
</g>
</svg>
