<?xml version="1.0" encoding="utf-8"?>
<!-- Generator: Adobe Illustrator 16.0.3, SVG Export Plug-In . SVG Version: 6.00 Build 0)  -->
<!DOCTYPE svg PUBLIC "-//W3C//DTD SVG 1.1//EN" "http://www.w3.org/Graphics/SVG/1.1/DTD/svg11.dtd">
<svg version="1.1" id="圖層_1" xmlns="http://www.w3.org/2000/svg" xmlns:xlink="http://www.w3.org/1999/xlink" x="0px" y="0px"
	 width="192px" height="192px" viewBox="0 0 192 192" enable-background="new 0 0 192 192" xml:space="preserve">
<g>
	<defs>
		<rect id="SVGID_7_" width="192" height="192"/>
	</defs>
	<clipPath id="SVGID_2_">
		<use xlink:href="#SVGID_7_"  overflow="visible"/>
	</clipPath>
	<g clip-path="url(#SVGID_2_)">
		<g>
			<path fill-rule="evenodd" clip-rule="evenodd" d="M155.812,86.783c-0.897,2.111-2.805-2.544-1.742-5.367
				c2.705-7.186,5.775-14.23,8.468-21.42c0.859-2.295,2.364-7.544-0.032-8.074c-0.562-0.158-1.38,2.233-1.744,3.276
				c-4.04,11.58-8.298,23.093-11.936,34.796c-1.898,6.112-5.291,4.343-9.298,3.105c-4.063-1.252-6.4-2.639-4.543-7.682
				c5.191-14.079,10.009-28.298,14.845-42.505c1.272-3.74,2.917-6.432,7.456-4.966c3.837,1.242,8.252,1.996,6.7,7.915
				c-0.23,0.881-0.029,2.284,0.551,2.902c4.343,4.627,2.774,9.105,0.555,14.158C161.403,71.318,159.272,77.752,155.812,86.783z"/>
			<path fill-rule="evenodd" clip-rule="evenodd" d="M133.992,93.936c1.117-0.322,1.306-0.447,1.45-0.409
				c9.277,2.477,9.283,2.481,6.205,11.42c-4.384,12.738-8.778,25.475-13.332,38.687c-3.58-1.241-6.749-2.341-10.288-3.567
				C123.464,124.35,128.755,109.07,133.992,93.936z"/>
			<path fill-rule="evenodd" clip-rule="evenodd" d="M127.677,145.336c-3.082,3.589-5.616,6.542-9.284,10.815
				c-0.373-5.41-0.636-9.205-0.968-14.031C121.076,143.267,123.984,144.178,127.677,145.336z"/>
		</g>
		<path fill="#040000" d="M126.514,53.333c0,1.848-1.499,3.348-3.348,3.348H43.419c-1.849,0-3.349-1.5-3.349-3.348l0,0
			c0-1.849,1.5-3.35,3.349-3.35h79.747C125.015,49.983,126.514,51.484,126.514,53.333L126.514,53.333z"/>
		<path fill="#040000" d="M126.514,67.282c0,1.849-1.499,3.348-3.348,3.348H43.419c-1.849,0-3.349-1.499-3.349-3.348l0,0
			c0-1.849,1.5-3.348,3.349-3.348h79.747C125.015,63.935,126.514,65.434,126.514,67.282L126.514,67.282z"/>
		<path fill="#040000" d="M126.514,81.234c0,1.847-1.499,3.347-3.348,3.347H43.419c-1.849,0-3.349-1.5-3.349-3.347l0,0
			c0-1.85,1.5-3.351,3.349-3.351h79.747C125.015,77.884,126.514,79.385,126.514,81.234L126.514,81.234z"/>
		<path fill="#040000" d="M126.514,95.184c0,1.851-1.499,3.35-3.348,3.35H43.419c-1.849,0-3.349-1.499-3.349-3.35l0,0
			c0-1.85,1.5-3.348,3.349-3.348h79.747C125.015,91.836,126.514,93.334,126.514,95.184L126.514,95.184z"/>
		<path fill="#040000" d="M126.514,109.134c0,1.85-1.499,3.349-3.348,3.349H43.419c-1.849,0-3.349-1.499-3.349-3.349l0,0
			c0-1.848,1.5-3.347,3.349-3.347h79.747C125.015,105.787,126.514,107.286,126.514,109.134L126.514,109.134z"/>
		<path fill="#040000" d="M126.514,39.382c0,1.849-1.499,3.348-3.348,3.348H43.419c-1.849,0-3.349-1.499-3.349-3.348l0,0
			c0-1.849,1.5-3.348,3.349-3.348h79.747C125.015,36.034,126.514,37.533,126.514,39.382L126.514,39.382z"/>
		<g>
			<g>
				<path fill="#040000" d="M45.28,145.867c6.872,5.741,13.97-7.384,15.842-12.513c-0.681,0.18-1.362,0.36-2.043,0.54
					c2.858,3.19,8.961,14.32,12.674,5.638c0.426-0.997-0.542-2.451-1.673-1.672c-3.515,2.422-2.408,8.039,0.812,10.227
					c4.349,2.955,10.431-5.893,12.845-8.105c-0.64-0.083-1.279-0.165-1.92-0.248c1.073,1.916,2.218,5.191,4.965,4.234
					c1.356-0.473,2.446-2.167,3.233-3.22c3.089-4.132,5.308-0.312,7.779,2.404c7.347,8.072,13.326-4.619,17.599-9.259
					c1.065-1.157-0.658-2.891-1.729-1.729c-2.357,2.56-4.139,5.584-6.37,8.25c-2.207,2.634-4.429,4.237-7.771,1.01
					c-1.606-1.551-3.022-3.29-4.663-4.815c-1.24-1.153-2.535-1.258-3.97-0.499c-0.798,0.422-1.467,1.372-1.986,2.067
					c-0.686,1.574-1.808,2.628-3.366,3.162c-0.64-0.84-1.096-1.923-1.609-2.84c-0.399-0.712-1.351-0.769-1.92-0.248
					c-1.563,1.432-2.949,3.046-4.43,4.563c-1.011,1.035-2.074,1.909-3.298,2.691c-3.169,2.027-5.132-4.044-2.966-5.537
					c-0.558-0.557-1.115-1.115-1.673-1.672c-2.24,5.24-6.992-4.078-8.834-6.133c-0.66-0.737-1.749-0.267-2.043,0.54
					c-1.16,3.179-7.259,15.192-11.756,11.434C45.809,143.136,44.069,144.855,45.28,145.867L45.28,145.867z"/>
			</g>
		</g>
		<path fill="#040000" d="M135.524,132.975v26.989c0,3.599-2.919,6.518-6.519,6.518H37.747c-3.601,0-6.519-2.919-6.519-6.518V32.038
			c0-3.601,2.918-6.519,6.519-6.519h91.259c3.6,0,6.519,2.918,6.519,6.519v43.62l6.518-18.727V28.778
			c0-5.399-4.378-9.778-9.777-9.778H34.487c-5.399,0-9.777,4.379-9.777,9.778v134.444c0,5.399,4.378,9.777,9.777,9.777h97.777
			c5.399,0,9.777-4.378,9.777-9.777v-48.66L135.524,132.975z"/>
	</g>
</g>
</svg>
