<?xml version="1.0" encoding="utf-8"?>
<!-- Generator: Adobe Illustrator 16.0.3, SVG Export Plug-In . SVG Version: 6.00 Build 0)  -->
<!DOCTYPE svg PUBLIC "-//W3C//DTD SVG 1.1//EN" "http://www.w3.org/Graphics/SVG/1.1/DTD/svg11.dtd">
<svg version="1.1" id="圖層_1" xmlns="http://www.w3.org/2000/svg" xmlns:xlink="http://www.w3.org/1999/xlink" x="0px" y="0px"
	 width="192px" height="192px" viewBox="0 0 192 192" enable-background="new 0 0 192 192" xml:space="preserve">
<g>
	<defs>
		<rect id="SVGID_13_" y="0.494" width="192" height="192"/>
	</defs>
	<clipPath id="SVGID_2_">
		<use xlink:href="#SVGID_13_"  overflow="visible"/>
	</clipPath>
	<g clip-path="url(#SVGID_2_)">
		<g>
			<path fill-rule="evenodd" clip-rule="evenodd" d="M109.96,106.606c0.378,0.139,0.612,0.222,0.847,0.311
				c2.073,0.797,3.137,3.012,2.482,5.172c-0.651,2.158-2.772,3.424-4.963,2.819c-3.762-1.038-7.555-1.862-11.441-2.27
				c-8.367-0.876-16.53,0.067-24.494,2.692c-12.224,4.031-22.299,11.264-30.729,20.874c-8.391,9.568-14.229,20.564-18.058,32.663
				c-0.139,0.434-0.266,0.868-0.409,1.301c-0.783,2.336-3.032,3.578-5.205,2.873c-2.283-0.742-3.475-3.005-2.766-5.359
				c2.901-9.636,7.025-18.705,12.601-27.096c7.186-10.814,16.155-19.797,27.324-26.503c4.979-2.987,10.242-5.335,15.781-7.069
				c0.334-0.104,0.664-0.219,1.201-0.396c-0.856-0.464-1.559-0.822-2.237-1.216c-12.93-7.495-20.7-18.626-22.902-33.384
				c-2.105-14.126,1.651-26.748,11.056-37.509c7.29-8.341,16.539-13.269,27.573-14.667c20.781-2.636,40.245,9.964,47.272,29.751
				c6.589,18.548,0.916,39.011-14.305,51.381c-2.379,1.933-5.123,3.412-7.699,5.098C110.629,106.241,110.351,106.381,109.96,106.606
				z M54.813,65.206c0,0.813-0.026,1.625,0.01,2.435c0.028,0.712,0.102,1.426,0.193,2.134c1.161,8.912,4.801,16.652,11.395,22.782
				c9.642,8.967,21.032,12.085,33.778,8.688c18.136-4.831,29.404-22.892,26.639-41.623c-1.342-9.101-5.533-16.736-12.426-22.875
				c-10.881-9.692-27.119-11.742-39.887-4.732C61.489,39.167,55.333,50.564,54.813,65.206z"/>
		</g>
		<g>
			<path fill-rule="evenodd" clip-rule="evenodd" d="M164.853,92.67c-0.948,2.23-2.963-2.688-1.841-5.672
				c2.858-7.593,6.104-15.037,8.948-22.634c0.908-2.425,2.498-7.972-0.034-8.532c-0.593-0.167-1.458,2.36-1.843,3.462
				c-4.27,12.237-8.769,24.402-12.612,36.769c-2.006,6.459-5.591,4.59-9.825,3.281c-4.294-1.322-6.764-2.787-4.801-8.117
				c5.486-14.877,10.576-29.902,15.687-44.915c1.345-3.952,3.082-6.796,7.879-5.248c4.055,1.313,8.72,2.109,7.08,8.364
				c-0.243,0.931-0.031,2.414,0.582,3.067c4.589,4.889,2.932,9.622,0.586,14.961C170.762,76.329,168.51,83.127,164.853,92.67z"/>
			<path fill-rule="evenodd" clip-rule="evenodd" d="M141.797,100.228c1.18-0.341,1.379-0.472,1.532-0.433
				c9.803,2.617,9.81,2.623,6.557,12.068c-4.633,13.461-9.276,26.919-14.088,40.88c-3.783-1.312-7.132-2.474-10.872-3.77
				C130.671,132.368,136.262,116.221,141.797,100.228z"/>
			<path fill-rule="evenodd" clip-rule="evenodd" d="M135.123,154.543c-3.257,3.793-5.935,6.912-9.811,11.429
				c-0.395-5.718-0.672-9.728-1.023-14.827C128.148,152.356,131.221,153.319,135.123,154.543z"/>
		</g>
		<g>
			<g>
				<path fill="#040000" d="M56.531,172.016c7.237,6.093,14.775-7.82,16.74-13.223c-0.72,0.19-1.438,0.381-2.158,0.57
					c3.009,3.345,9.49,15.16,13.392,5.959c0.452-1.068-0.563-2.566-1.767-1.768c-3.74,2.479-2.537,8.57,0.857,10.807
					c4.654,3.067,10.951-6.174,13.572-8.564c-0.676-0.088-1.353-0.175-2.028-0.262c0.834,1.488,2.892,6.384,5.554,4.344
					c1.918-1.469,3.163-3.455,4.695-5.298c1.764-2.12,6.166,4.067,7.188,5.13c7.407,7.71,13.98-5.953,18.042-10.348
					c1.129-1.221-0.693-3.052-1.826-1.826c-2.341,2.532-4.129,5.516-6.288,8.197c-2.115,2.631-4.656,5.156-8.102,2.15
					c-1.625-1.417-3.028-3.219-4.539-4.764c-1.092-1.117-3.019-2.79-4.704-1.677c-1.057,0.698-1.856,1.533-2.621,2.56
					c-0.707,1.61-1.863,2.687-3.468,3.229c-0.677-0.887-1.158-2.032-1.701-3.001c-0.422-0.753-1.426-0.812-2.028-0.261
					c-1.823,1.662-3.419,3.562-5.17,5.301c-0.98,0.973-2.061,1.796-3.246,2.5c-3.195,1.898-5.152-4.484-2.885-5.986
					c-0.589-0.589-1.178-1.178-1.767-1.768c-2.302,5.43-7.517-4.459-9.335-6.48c-0.698-0.777-1.848-0.283-2.158,0.57
					c-1.238,3.402-7.703,16.057-12.424,12.082C57.092,169.125,55.255,170.943,56.531,172.016L56.531,172.016z"/>
			</g>
		</g>
		<path fill="#040000" d="M113.901,70.446H94.988V89.36c0,2.189-1.775,3.965-3.967,3.965c-2.189,0-3.965-1.775-3.965-3.965V70.446
			H68.144c-2.189,0-3.965-1.775-3.965-3.967c0-2.189,1.775-3.965,3.965-3.965h18.913V43.6c0-2.189,1.775-3.965,3.965-3.965
			c2.191,0,3.967,1.775,3.967,3.965v18.914h18.913c2.19,0,3.966,1.775,3.966,3.965C117.867,68.67,116.092,70.446,113.901,70.446z"/>
	</g>
</g>
</svg>
